<?xml version="1.0" encoding="UTF-8"?>
<svg xmlns="http://www.w3.org/2000/svg" xmlns:xlink="http://www.w3.org/1999/xlink" viewBox="0 0 61.65 64.54">
  <defs>
    <style>
      .cls-1 {
        fill: #fff;
      }

      .cls-2 {
        fill: url(#radial-gradient);
        mix-blend-mode: multiply;
        opacity: .8;
      }

      .cls-3 {
        isolation: isolate;
      }

      .cls-4 {
        fill: url(#Degradado_sin_nombre_10);
      }
    </style>
    <radialGradient id="radial-gradient" cx="31.96" cy="34.86" fx="31.96" fy="34.86" r="29.68" gradientUnits="userSpaceOnUse">
      <stop offset="0" stop-color="#000057"/>
      <stop offset=".39" stop-color="#7474a4" stop-opacity=".54"/>
      <stop offset=".79" stop-color="#d8d8e5" stop-opacity=".15"/>
      <stop offset="1" stop-color="#fff" stop-opacity="0"/>
    </radialGradient>
    <linearGradient id="Degradado_sin_nombre_10" data-name="Degradado sin nombre 10" x1="6.98" y1="6.98" x2="40.68" y2="40.68" gradientUnits="userSpaceOnUse">
      <stop offset="0" stop-color="#007bb8"/>
      <stop offset="1" stop-color="#0044e9"/>
    </linearGradient>
  </defs>
  <g class="cls-3">
    <g id="Layer_2" data-name="Layer 2">
      <g id="ELEMENTS">
        <g>
          <circle class="cls-2" cx="31.96" cy="34.86" r="29.68"/>
          <g>
            <circle class="cls-4" cx="23.83" cy="23.83" r="23.83"/>
            <g>
              <path class="cls-1" d="M14.28,18.25h4.1v13.16h-4.1v-13.16ZM16.33,11.71c1.31,0,2.37,1.06,2.37,2.37s-1.06,2.37-2.37,2.37-2.38-1.06-2.38-2.37,1.06-2.37,2.38-2.37"/>
              <path class="cls-1" d="M20.95,18.25h3.92v1.8h.05c.55-1.04,1.88-2.13,3.87-2.13,4.14,0,4.91,2.72,4.91,6.27v7.22h-4.09v-6.4c0-1.53-.03-3.49-2.13-3.49s-2.45,1.66-2.45,3.38v6.51h-4.09v-13.16Z"/>
            </g>
          </g>
        </g>
      </g>
    </g>
  </g>
</svg>